<svg width="24" height="24" viewBox="0 0 24 24" fill="none" xmlns="http://www.w3.org/2000/svg">
<path d="M12.8922 23.9993H11.12C10.7072 23.9343 10.2937 23.8741 9.88232 23.803C3.32614 22.6714 -1.10251 16.1694 0.24044 9.64825C1.56972 3.1914 7.62562 -0.93598 14.1285 0.182579C18.7581 0.97891 22.6195 4.6356 23.6699 9.20151C23.8203 9.85417 23.8804 10.5185 24 11.1746V12.8801C23.8975 13.1264 23.92 13.3932 23.8831 13.6497C23.1935 18.4715 19.7497 22.354 15.0593 23.6025C14.3451 23.7927 13.6139 23.8673 12.8908 24L12.8922 23.9993ZM12.0126 10.9009C13.0001 10.9009 13.9884 10.9009 14.9759 10.9009C15.1208 10.9009 15.2616 10.9392 15.248 10.6874C15.142 8.80882 14.8789 6.9596 14.2618 5.17402C13.9638 4.31201 13.6043 3.47737 13.0042 2.77613C12.3174 1.97364 11.7167 1.97159 11.0216 2.75971C10.55 3.2947 10.235 3.92547 9.97321 4.58087C9.18931 6.54434 8.88177 8.60289 8.76422 10.6998C8.75124 10.9262 8.87767 10.9002 9.01504 10.9002C10.0142 10.9002 11.0134 10.9002 12.0126 10.9002V10.9009ZM12.0092 13.084C11.0325 13.084 10.0566 13.0901 9.07997 13.0792C8.84213 13.0764 8.74372 13.1045 8.769 13.3898C8.82368 14.0117 8.85853 14.6356 8.94191 15.2554C9.15719 16.8597 9.50369 18.4298 10.194 19.9041C10.479 20.5123 10.8084 21.0986 11.3414 21.5337C11.7959 21.9045 12.1848 21.912 12.6359 21.557C12.7862 21.4386 12.927 21.3011 13.0493 21.1533C13.4949 20.6142 13.8032 19.9951 14.0588 19.3486C14.827 17.4036 15.127 15.3676 15.2466 13.294C15.2616 13.0395 15.1126 13.0847 14.9718 13.0847C13.9843 13.084 12.9967 13.0847 12.0085 13.0847L12.0092 13.084ZM8.34596 2.94511C8.19082 2.91774 8.09856 2.99163 8.00151 3.03747C4.77229 4.57677 2.87644 7.11969 2.28254 10.6471C2.2429 10.8845 2.33038 10.9057 2.52584 10.9043C3.73962 10.8975 4.9534 10.8879 6.16717 10.9098C6.50342 10.9159 6.60389 10.8339 6.61209 10.4884C6.6654 8.24441 7.12945 6.07912 7.92565 3.98362C8.05687 3.63882 8.20175 3.30017 8.34528 2.94511H8.34596ZM15.6867 2.90338C15.6867 2.97316 15.6833 2.98547 15.6867 2.99437C16.744 5.44767 17.3543 8.00154 17.4124 10.6792C17.4165 10.8599 17.491 10.9043 17.6612 10.9036C18.9542 10.8982 20.2473 10.8961 21.541 10.905C21.7488 10.9064 21.7529 10.8215 21.7276 10.6601C21.2875 7.83598 19.9185 5.58518 17.588 3.92821C17.0071 3.51499 16.3852 3.17429 15.6867 2.90338ZM8.32546 21.0829C8.32546 21.0124 8.32887 21.0001 8.32546 20.9905C7.2675 18.5379 6.6572 15.984 6.5991 13.3063C6.595 13.1264 6.52256 13.0799 6.3517 13.0805C5.06958 13.0867 3.78814 13.0901 2.50602 13.0785C2.26682 13.0764 2.25862 13.1626 2.28869 13.3576C2.67756 15.8622 3.83188 17.9352 5.77352 19.5627C6.53213 20.1983 7.37207 20.7018 8.32614 21.0822L8.32546 21.0829ZM15.6361 21.0959C15.792 21.0391 15.8665 21.0172 15.9362 20.985C19.2105 19.4471 21.135 16.8878 21.7317 13.3193C21.7693 13.0963 21.6784 13.0812 21.5014 13.0819C20.265 13.0867 19.028 13.0949 17.7924 13.0771C17.4964 13.073 17.4083 13.1496 17.4028 13.4479C17.3721 15.1247 17.0905 16.7653 16.6312 18.3764C16.3736 19.2802 16.0387 20.1565 15.6355 21.0959H15.6361Z" fill="#9DA4AF"/>
</svg>
